<svg width="100%" viewBox="0 0 960 420" role="img" xmlns="http://www.w3.org/2000/svg" font-family="Helvetica, Arial, sans-serif">
<title>flash-website design tokens preview</title>
<rect width="960" height="420" fill="#0C0A09"/>
<text x="40" y="52" font-size="24" font-weight="700" fill="#F5F5F4">flash-website — design tokens</text>
<text x="40" y="74" font-size="12.5" fill="#A8A29E">dark warm stone base · three complementary era-accents · muted so the work shines</text>

<!-- base ramp -->
<text x="40" y="112" font-size="11" font-weight="600" fill="#78716C" letter-spacing="1">BASE (STONE)</text>
<g>
<rect x="40" y="122" width="150" height="56" rx="6" fill="#0C0A09" stroke="#44403C"/>
<text x="52" y="146" font-size="11" fill="#F5F5F4">bg</text><text x="52" y="164" font-size="10" fill="#A8A29E">#0C0A09</text>
<rect x="198" y="122" width="150" height="56" rx="6" fill="#1C1917" stroke="#44403C"/>
<text x="210" y="146" font-size="11" fill="#F5F5F4">surface</text><text x="210" y="164" font-size="10" fill="#A8A29E">#1C1917</text>
<rect x="356" y="122" width="150" height="56" rx="6" fill="#292524" stroke="#44403C"/>
<text x="368" y="146" font-size="11" fill="#F5F5F4">surface-2</text><text x="368" y="164" font-size="10" fill="#A8A29E">#292524</text>
<rect x="514" y="122" width="150" height="56" rx="6" fill="#F5F5F4"/>
<text x="526" y="146" font-size="11" fill="#1C1917">text</text><text x="526" y="164" font-size="10" fill="#57534E">#F5F5F4</text>
<rect x="672" y="122" width="150" height="56" rx="6" fill="#0C0A09" stroke="#44403C"/>
<text x="684" y="146" font-size="11" fill="#D6D3D1">body</text><text x="684" y="164" font-size="10" fill="#A8A29E">#D6D3D1</text>
</g>

<!-- accents -->
<text x="40" y="220" font-size="11" font-weight="600" fill="#78716C" letter-spacing="1">ACCENTS (ERA-MAPPED)</text>
<g>
<rect x="40" y="230" width="138" height="70" rx="6" fill="#1C1917" stroke="#44403C"/>
<circle cx="70" cy="258" r="11" fill="#5EAAA8"/><text x="90" y="256" font-size="11" fill="#F5F5F4">teal</text>
<text x="90" y="270" font-size="9.5" fill="#A8A29E">#5EAAA8</text><text x="52" y="290" font-size="9.5" fill="#78716C">Era 1 · prefill</text>
<rect x="186" y="230" width="138" height="70" rx="6" fill="#1C1917" stroke="#44403C"/>
<circle cx="216" cy="258" r="11" fill="#E0A458"/><text x="236" y="256" font-size="11" fill="#F5F5F4">amber</text>
<text x="236" y="270" font-size="9.5" fill="#A8A29E">#E0A458</text><text x="198" y="290" font-size="9.5" fill="#78716C">Era 2 · decode</text>
<rect x="332" y="230" width="138" height="70" rx="6" fill="#1C1917" stroke="#44403C"/>
<circle cx="362" cy="258" r="11" fill="#C97B63"/><text x="382" y="256" font-size="11" fill="#F5F5F4">clay</text>
<text x="382" y="270" font-size="9.5" fill="#A8A29E">#C97B63</text><text x="344" y="290" font-size="9.5" fill="#78716C">Era 3 · frontier</text>
<rect x="478" y="230" width="138" height="70" rx="6" fill="#1C1917" stroke="#44403C"/>
<circle cx="508" cy="258" r="11" fill="#9CA986"/><text x="528" y="256" font-size="11" fill="#F5F5F4">sage</text>
<text x="528" y="270" font-size="9.5" fill="#A8A29E">#9CA986</text><text x="490" y="290" font-size="9.5" fill="#78716C">win / series</text>
<rect x="624" y="230" width="138" height="70" rx="6" fill="#1C1917" stroke="#44403C"/>
<circle cx="654" cy="258" r="11" fill="#9B8CC0"/><text x="674" y="256" font-size="11" fill="#F5F5F4">violet</text>
<text x="674" y="270" font-size="9.5" fill="#A8A29E">#9B8CC0</text><text x="636" y="290" font-size="9.5" fill="#78716C">series</text>
<rect x="770" y="230" width="150" height="70" rx="6" fill="#1C1917" stroke="#44403C"/>
<circle cx="800" cy="258" r="11" fill="#B45E4D"/><text x="820" y="256" font-size="11" fill="#F5F5F4">danger</text>
<text x="820" y="270" font-size="9.5" fill="#A8A29E">#B45E4D</text><text x="782" y="290" font-size="9.5" fill="#78716C">dead ends</text>
</g>

<!-- type -->
<text x="40" y="342" font-size="11" font-weight="600" fill="#78716C" letter-spacing="1">TYPE</text>
<text x="40" y="372" font-size="30" font-weight="700" fill="#F5F5F4">FlashAttention, from scratch</text>
<text x="40" y="398" font-size="14" fill="#D6D3D1">Space Grotesk display · Inter body · </text>
<text x="352" y="398" font-size="14" fill="#E0A458" font-family="monospace">1785 TFLOP/s · JetBrains Mono</text>
</svg>
